PathFileType	4	(X/Y/Z)	/Users/itak/Documents/Research/Walk-IL/dataset/trc/00400_00012.trc
DataRate	CameraRate	NumFrames	NumMarkers	Units	OrigDataRate	OrigDataStartFrame	OrigNumFrames
100.000000	100.000000	4	53	mm	100.000000	243	649
Frame#	Time	RPSI			LPSI			L3			STRN			T10			C7			CLAV			RBAK			LBAK			LSHO			LUPA			LAEL			LAOL			LWTS			LWPS			LFRA			LIFD			LHPS			LHTS			RSHO			RUPA			RAEL			RAOL			RWTS			RWPS			RFRA			RIFD			RHTS			RHPS			RBHD			LFHD			RFHD			LBHD			LHIP			RHIP			RASI			LASI			LKNE			LTHI			LANK			LTIP			LTOE			LMT1			LMT5			LHEE			RKNE			RTHI			RANK			RTIP			RTOE			RMT1			RMT5			RHEE			
		X1	Y1	Z1	X2	Y2	Z2	X3	Y3	Z3	X4	Y4	Z4	X5	Y5	Z5	X6	Y6	Z6	X7	Y7	Z7	X8	Y8	Z8	X9	Y9	Z9	X10	Y10	Z10	X11	Y11	Z11	X12	Y12	Z12	X13	Y13	Z13	X14	Y14	Z14	X15	Y15	Z15	X16	Y16	Z16	X17	Y17	Z17	X18	Y18	Z18	X19	Y19	Z19	X20	Y20	Z20	X21	Y21	Z21	X22	Y22	Z22	X23	Y23	Z23	X24	Y24	Z24	X25	Y25	Z25	X26	Y26	Z26	X27	Y27	Z27	X28	Y28	Z28	X29	Y29	Z29	X30	Y30	Z30	X31	Y31	Z31	X32	Y32	Z32	X33	Y33	Z33	X34	Y34	Z34	X35	Y35	Z35	X36	Y36	Z36	X37	Y37	Z37	X38	Y38	Z38	X39	Y39	Z39	X40	Y40	Z40	X41	Y41	Z41	X42	Y42	Z42	X43	Y43	Z43	X44	Y44	Z44	X45	Y45	Z45	X46	Y46	Z46	X47	Y47	Z47	X48	Y48	Z48	X49	Y49	Z49	X50	Y50	Z50	X51	Y51	Z51	X52	Y52	Z52	X53	Y53	Z53	

244	2.43	1211.19873046875	934.0692138671875	443.9732360839844	1082.327026367188	904.4689331054688	423.6853637695312	1152.099731445312	998.9571533203125	434.399658203125	1188.953247070312	1148.217895507812	201.7305297851562	1150.35986328125	1103.155151367188	448.6952209472656	1145.753295898438	1350.111450195312	402.2451171875	1173.676147460938	1267.947998046875	250.5332641601562	1210.09423828125	1209.235595703125	459.431884765625	1044.547973632812	1310.2216796875	408.2962951660156	1002.324157714844	1321.473388671875	317.766357421875	937.340087890625	1215.839965820312	370.7328491210938	913.0091552734375	1029.440185546875	422.8330993652344	987.7444458007812	1014.147216796875	460.9477844238281	924.0758666992188	789.5283203125	403.057861328125	875.2960205078125	805.3822631835938	468.8759765625	894.9307861328125	927.4225463867188	445.5835876464844	919.2763671875	626.4299926757812	484.12353515625	878.2235717773438	720.616455078125	490.5263366699219	896.469482421875	696.1076049804688	435.2994689941406	1307.4052734375	1339.06103515625	369.8202209472656	1367.11181640625	1277.388916015625	393.0294494628906	1447.63525390625	1022.907348632812	376.1707153320312	1354.3583984375	996.2147827148438	370.8689575195312	1470.768798828125	942.270751953125	143.9893188476562	1526.1474609375	907.921875	177.7040405273438	1476.688598632812	982.7817993164062	326.4194946289062	1519.28759765625	829.9888305664062	19.71089363098145	1516.893432617188	887.9829711914062	63.48839950561523	1547.694580078125	853.8391723632812	114.3227462768555	1238.693359375	1540.133178710938	340.8981018066406	1065.068481445312	1534.56640625	241.0118713378906	1185.292236328125	1553.344116210938	217.5871887207031	1086.51611328125	1512.982299804688	387.3927001953125	992.6451416015625	887.7255249023438	313.4350280761719	1343.031616210938	922.5422973632812	388.2226257324219	1325.5029296875	920.4771118164062	238.8347930908203	1061.93408203125	894.5807495117188	211.4870452880859	1110.404052734375	434.4644470214844	126.8707656860352	1069.142211914062	556.8541870117188	183.3474884033203	1238.989013671875	20.38440322875977	67.36213684082031	1164.57666015625	205.7933959960938	92.76207733154297	1262.98876953125	76.26073455810547	-140.5097503662109	1307.228881835938	61.42452239990234	-73.97701263427734	1204.840454101562	40.21543884277344	-54.13645172119141	1298.60400390625	18.71946144104004	94.54039764404297	1326.237915039062	442.9963684082031	456.345947265625	1359.97412109375	689.17431640625	352.2132873535156	1252.141235351562	71.30560302734375	672.5175170898438	1310.688598632812	322.6640625	499.0201416015625	1258.24853515625	25.39530754089355	490.9065246582031	1203.469604492188	39.32251739501953	547.4007568359375	1287.908203125	35.03997802734375	602.98193359375	1174.263549804688	82.61740112304688	719.1178588867188	
245	2.44	1214.36767578125	933.6893920898438	431.1645202636719	1084.927612304688	905.0103759765625	412.1831665039062	1154.976196289062	998.7854614257812	422.0539855957031	1189.123168945312	1148.47216796875	190.1215515136719	1152.784057617188	1103.031982421875	437.642822265625	1147.162231445312	1350.094970703125	391.6632385253906	1174.105102539062	1268.02392578125	239.4613037109375	1212.1201171875	1209.147705078125	448.0453796386719	1045.842529296875	1310	398.18896484375	1003.072448730469	1321.20556640625	307.784423828125	938.480224609375	1214.752319335938	360.1275329589844	914.8138427734375	1027.723022460938	410.3312072753906	989.3641357421875	1012.802551269531	449.2684326171875	929.8641967773438	787.8089599609375	390.7012329101562	878.58251953125	803.2349243164062	454.3431396484375	897.5036010742188	925.2810668945312	432.4495849609375	927.4075317382812	624.9148559570312	473.6261291503906	884.4370727539062	717.7156372070312	477.9531555175781	903.8212280273438	693.799072265625	423.2468872070312	1308.59130859375	1339.04248046875	357.9772338867188	1368.265625	1277.182861328125	380.8590393066406	1447.518920898438	1022.364440917969	363.9623718261719	1354.177001953125	996.11474609375	358.5307922363281	1470.595703125	940.172607421875	132.2319641113281	1525.918823242188	906.03955078125	166.2041168212891	1476.484619140625	981.9107055664062	314.3644714355469	1519.299560546875	827.399658203125	8.518306732177734	1516.811157226562	885.4452514648438	52.08677673339844	1547.450073242188	851.5441284179688	103.009895324707	1239.808837890625	1540.20654296875	330.239990234375	1065.396850585938	1534.955200195312	231.6578063964844	1185.422485351562	1553.697021484375	207.4796905517578	1087.987060546875	1512.973510742188	377.7846374511719	993.9285888671875	888.9614868164062	302.7378234863281	1345.4716796875	921.6897583007812	374.0038757324219	1325.82763671875	919.8375854492188	225.2718963623047	1062.194091796875	895.592041015625	200.1574249267578	1111.008666992188	434.7843627929688	116.5744781494141	1069.6591796875	557.5872802734375	172.4295959472656	1240.01953125	21.58028221130371	67.24736022949219	1165.646362304688	205.3867950439453	86.04014587402344	1263.5498046875	68.42079162597656	-144.5294342041016	1307.882202148438	56.005615234375	-77.18131256103516	1205.515991210938	37.50532150268555	-55.90542221069336	1299.546875	19.99769592285156	93.14868927001953	1330.044799804688	442.3101196289062	441.5091247558594	1361.697875976562	688.2396850585938	337.2162780761719	1255.847778320312	76.03765869140625	669.8060913085938	1314.907470703125	323.2075805664062	487.8966979980469	1258.058227539062	25.40635299682617	491.4803771972656	1204.897338867188	41.07277297973633	546.7650146484375	1289.417724609375	35.23404693603516	601.7611694335938	1178.692504882812	91.56085205078125	715.5599365234375	
246	2.45	1217.391357421875	933.601806640625	418.2841796875	1087.383422851562	905.9254760742188	400.6720886230469	1157.704833984375	999.04541015625	409.58935546875	1189.065673828125	1149.1416015625	178.423828125	1155.119140625	1103.233520507812	426.4602355957031	1148.526611328125	1350.444580078125	381.0409545898438	1174.370971679688	1268.504638671875	228.3420562744141	1214.102172851562	1209.42529296875	436.5735473632812	1047.13330078125	1310.187866210938	388.1066284179688	1003.725769042969	1321.340209960938	297.8374633789062	939.534423828125	1214.078002929688	349.4920043945312	916.4805297851562	1026.280395507812	397.5011596679688	990.8569946289062	1011.816162109375	437.3993835449219	935.7298583984375	786.5616455078125	377.6047973632812	881.8671875	801.2872924804688	438.9293518066406	900.0013427734375	923.41845703125	418.7992553710938	935.7080078125	623.6585693359375	461.6327819824219	890.9130249023438	714.8115844726562	464.2627563476562	911.3303833007812	691.9005126953125	409.990478515625	1309.68701171875	1339.376342773438	345.9902648925781	1369.320068359375	1277.355712890625	368.5386962890625	1447.17724609375	1022.173461914062	351.9244079589844	1353.751342773438	996.4243774414062	346.3589782714844	1470.283325195312	937.69970703125	120.8664398193359	1525.439086914062	903.7627563476562	155.2745056152344	1476.055908203125	981.2215576171875	302.5765991210938	1519.0166015625	823.9827880859375	-1.871232271194458	1516.529663085938	882.2100830078125	41.29730224609375	1546.884155273438	848.6450805664062	92.37825775146484	1240.797607421875	1540.6494140625	319.5327758789062	1065.602416992188	1535.651245117188	222.2648773193359	1185.400756835938	1554.372924804688	197.3555297851562	1089.335815429688	1513.306884765625	368.1453247070312	994.9822998046875	890.5750122070312	292.1033020019531	1347.67724609375	921.1221923828125	359.6056823730469	1325.779663085938	919.523681640625	211.6757507324219	1062.148315429688	897.0208129882812	188.8757934570312	1111.474487304688	435.4574279785156	106.1985626220703	1069.953125	558.6387329101562	161.5695648193359	1240.906005859375	22.88627815246582	67.55210113525391	1166.520141601562	205.3193359375	79.47952270507812	1264.267822265625	60.87115097045898	-147.9760131835938	1308.559814453125	50.90250778198242	-79.74320983886719	1206.194213867188	35.19415664672852	-57.23255920410156	1300.281005859375	21.30781745910645	92.21121215820312	1334.34619140625	441.739501953125	425.4844360351562	1363.380859375	687.603271484375	321.6529541015625	1260.512817382812	81.36247253417969	666.1741333007812	1319.7529296875	323.9720153808594	475.5539855957031	1257.847412109375	25.40353202819824	492.1873779296875	1206.691772460938	43.02715682983398	545.8800659179688	1291.344848632812	35.59774398803711	600.1466674804688	1184.3623046875	101.4644088745117	710.88330078125	
247	2.46	1220.222900390625	933.7623901367188	405.4134216308594	1089.671142578125	907.1458129882812	389.2123107910156	1160.232788085938	999.7080078125	397.0970458984375	1188.784790039062	1150.186401367188	166.6787872314453	1157.358154296875	1103.731689453125	415.1527709960938	1149.84375	1351.12255859375	370.3898010253906	1174.477783203125	1269.359497070312	217.2005310058594	1216.033325195312	1210.030395507812	425.0372009277344	1048.421142578125	1310.753784179688	378.0601501464844	1004.292602539062	1321.854736328125	287.9404907226562	940.51513671875	1213.805786132812	338.8506164550781	918.044677734375	1025.119506835938	384.4030151367188	992.2608032226562	1011.174133300781	425.3477783203125	941.5435791015625	785.7958984375	363.7857055664062	885.152099609375	799.5750732421875	422.7862243652344	902.4485473632812	921.8589477539062	404.7107543945312	944.0325317382812	622.660400390625	448.0982666015625	897.5176391601562	711.9826049804688	449.487060546875	918.8267822265625	690.440673828125	395.55859375	1310.691650390625	1340.029052734375	333.8861083984375	1370.28173828125	1277.880859375	356.0805358886719	1446.650146484375	1022.324645996094	340.0342102050781	1353.123291015625	997.1235961914062	334.3482360839844	1469.843627929688	934.8570556640625	109.8889541625977	1524.730712890625	901.1103515625	144.8973541259766	1475.437866210938	980.7192993164062	291.0326843261719	1518.407958984375	819.7174072265625	-11.43023109436035	1516.0380859375	878.2724609375	31.12332344055176	1546.010620117188	845.1589965820312	82.45176696777344	1241.672607421875	1541.411254882812	308.7794494628906	1065.692016601562	1536.60986328125	212.8478393554688	1185.232666015625	1555.327880859375	187.2177276611328	1090.581298828125	1513.93603515625	358.4895324707031	995.8079223632812	892.4795532226562	281.5758056640625	1349.612915039062	920.8184204101562	345.1368713378906	1325.399536132812	919.5589599609375	198.1127777099609	1061.817626953125	898.7868041992188	177.6959991455078	1111.8408203125	436.4064636230469	95.80633544921875	1070.07568359375	559.9422607421875	150.8168792724609	1241.624267578125	24.21071624755859	67.99777221679688	1167.205810546875	205.5489807128906	73.07329559326172	1265.162231445312	53.93389511108398	-150.9201049804688	1309.276977539062	46.31614303588867	-81.76871490478516	1206.900390625	33.35660552978516	-58.30468368530273	1300.796875	22.55283355712891	91.54478454589844	1339.13623046875	441.2459716796875	408.2431335449219	1365.033813476562	687.255859375	305.6022338867188	1266.219482421875	87.25470733642578	661.424072265625	1325.212158203125	324.8897094726562	461.877685546875	1257.668212890625	25.36151504516602	492.9402160644531	1208.917236328125	45.19100189208984	544.65576171875	1293.782958984375	36.22114562988281	598.008544921875	1191.387939453125	112.2203674316406	704.9134521484375	
